<mxfile host="app.diagrams.net" agent="Mozilla/5.0 (Windows NT 10.0; Win64; x64) AppleWebKit/537.36 (KHTML, like Gecko) Chrome/134.0.0.0 Safari/537.36" version="26.1.1">
  <diagram name="Trang-1" id="kW-_GksJ5ALZqBdkiXd7">
    <mxGraphModel dx="2812" dy="2026" grid="1" gridSize="10" guides="1" tooltips="1" connect="1" arrows="1" fold="1" page="1" pageScale="1" pageWidth="827" pageHeight="1169" math="0" shadow="0">
      <root>
        <mxCell id="0" />
        <mxCell id="1" parent="0" />
        <mxCell id="qz86LCAzFGxaia78Myq2-25" value="" style="edgeStyle=orthogonalEdgeStyle;rounded=0;orthogonalLoop=1;jettySize=auto;html=1;" parent="1" source="qz86LCAzFGxaia78Myq2-23" target="qz86LCAzFGxaia78Myq2-24" edge="1">
          <mxGeometry relative="1" as="geometry" />
        </mxCell>
        <mxCell id="qz86LCAzFGxaia78Myq2-23" value="Hàm setup" style="ellipse;whiteSpace=wrap;html=1;" parent="1" vertex="1">
          <mxGeometry x="-670.5" y="280" width="170" height="60" as="geometry" />
        </mxCell>
        <mxCell id="NidRG3bAUvhYzI4qwdSQ-29" style="edgeStyle=orthogonalEdgeStyle;rounded=0;orthogonalLoop=1;jettySize=auto;html=1;exitX=0.5;exitY=1;exitDx=0;exitDy=0;entryX=0.5;entryY=0;entryDx=0;entryDy=0;" edge="1" parent="1" source="qz86LCAzFGxaia78Myq2-24" target="NidRG3bAUvhYzI4qwdSQ-28">
          <mxGeometry relative="1" as="geometry" />
        </mxCell>
        <mxCell id="qz86LCAzFGxaia78Myq2-24" value="&lt;div&gt;&lt;br&gt;&lt;/div&gt;&lt;div&gt;&lt;br&gt;&lt;/div&gt;&lt;div&gt;&lt;br&gt;&lt;/div&gt;Thiết lập các chân vào ra để đọc dữ liệu cảm biển và điều khiển động cơ&lt;div&gt;Cấu hình hướng quay cho động cơ ( đi tiến)&lt;/div&gt;&lt;div&gt;&lt;br&gt;&lt;/div&gt;&lt;div&gt;&lt;br&gt;&lt;div&gt;&lt;br&gt;&lt;/div&gt;&lt;/div&gt;" style="whiteSpace=wrap;html=1;align=center;" parent="1" vertex="1">
          <mxGeometry x="-721.5" y="370" width="271" height="70" as="geometry" />
        </mxCell>
        <mxCell id="qz86LCAzFGxaia78Myq2-44" value="" style="edgeStyle=orthogonalEdgeStyle;rounded=0;orthogonalLoop=1;jettySize=auto;html=1;" parent="1" source="qz86LCAzFGxaia78Myq2-42" target="qz86LCAzFGxaia78Myq2-43" edge="1">
          <mxGeometry relative="1" as="geometry" />
        </mxCell>
        <mxCell id="qz86LCAzFGxaia78Myq2-42" value="Đọc và tính toán dữ liệu từ cảm biến" style="ellipse;whiteSpace=wrap;html=1;" parent="1" vertex="1">
          <mxGeometry x="-288.5" y="260" width="166.5" height="57" as="geometry" />
        </mxCell>
        <mxCell id="qz86LCAzFGxaia78Myq2-49" value="" style="edgeStyle=orthogonalEdgeStyle;rounded=0;orthogonalLoop=1;jettySize=auto;html=1;" parent="1" source="qz86LCAzFGxaia78Myq2-43" target="qz86LCAzFGxaia78Myq2-48" edge="1">
          <mxGeometry relative="1" as="geometry" />
        </mxCell>
        <mxCell id="qz86LCAzFGxaia78Myq2-43" value="Đọc giá trị cảm biến, đảo giá trị cảm biến" style="whiteSpace=wrap;html=1;" parent="1" vertex="1">
          <mxGeometry x="-265.75" y="347" width="120" height="40" as="geometry" />
        </mxCell>
        <mxCell id="qz86LCAzFGxaia78Myq2-70" value="" style="edgeStyle=orthogonalEdgeStyle;rounded=0;orthogonalLoop=1;jettySize=auto;html=1;" parent="1" source="qz86LCAzFGxaia78Myq2-48" target="qz86LCAzFGxaia78Myq2-50" edge="1">
          <mxGeometry relative="1" as="geometry" />
        </mxCell>
        <mxCell id="qz86LCAzFGxaia78Myq2-48" value="i &amp;lt; 5" style="rhombus;whiteSpace=wrap;html=1;" parent="1" vertex="1">
          <mxGeometry x="-245.75" y="437" width="80" height="50" as="geometry" />
        </mxCell>
        <mxCell id="qz86LCAzFGxaia78Myq2-74" value="" style="edgeStyle=orthogonalEdgeStyle;rounded=0;orthogonalLoop=1;jettySize=auto;html=1;" parent="1" source="qz86LCAzFGxaia78Myq2-50" target="qz86LCAzFGxaia78Myq2-73" edge="1">
          <mxGeometry relative="1" as="geometry" />
        </mxCell>
        <mxCell id="qz86LCAzFGxaia78Myq2-50" value="Dịch phải&amp;nbsp;sensorValues &amp;amp; 1 =&amp;gt; để lấy giá trị tính&lt;span style=&quot;background-color: transparent; color: light-dark(rgb(0, 0, 0), rgb(255, 255, 255));&quot;&gt;&amp;nbsp;toán sum,&amp;nbsp; sumWeights&lt;/span&gt;" style="whiteSpace=wrap;html=1;" parent="1" vertex="1">
          <mxGeometry x="-281.51" y="522" width="150.75" height="60" as="geometry" />
        </mxCell>
        <mxCell id="qz86LCAzFGxaia78Myq2-60" value="" style="endArrow=none;html=1;rounded=0;" parent="1" edge="1">
          <mxGeometry width="50" height="50" relative="1" as="geometry">
            <mxPoint x="35" y="437" as="sourcePoint" />
            <mxPoint x="35" y="437" as="targetPoint" />
          </mxGeometry>
        </mxCell>
        <mxCell id="qz86LCAzFGxaia78Myq2-66" value="" style="endArrow=classic;html=1;rounded=0;exitX=1;exitY=0.5;exitDx=0;exitDy=0;" parent="1" source="qz86LCAzFGxaia78Myq2-48" edge="1">
          <mxGeometry relative="1" as="geometry">
            <mxPoint x="-45" y="427" as="sourcePoint" />
            <mxPoint x="-205.5" y="617" as="targetPoint" />
            <Array as="points">
              <mxPoint x="-85" y="462" />
              <mxPoint x="-86.5" y="617" />
            </Array>
          </mxGeometry>
        </mxCell>
        <mxCell id="qz86LCAzFGxaia78Myq2-71" value="Đ" style="text;html=1;align=center;verticalAlign=middle;whiteSpace=wrap;rounded=0;" parent="1" vertex="1">
          <mxGeometry x="-235" y="487" width="20" height="30" as="geometry" />
        </mxCell>
        <mxCell id="qz86LCAzFGxaia78Myq2-72" value="S" style="text;html=1;align=center;verticalAlign=middle;whiteSpace=wrap;rounded=0;" parent="1" vertex="1">
          <mxGeometry x="-134.99" y="462" width="20" height="30" as="geometry" />
        </mxCell>
        <mxCell id="qz86LCAzFGxaia78Myq2-76" value="" style="edgeStyle=orthogonalEdgeStyle;rounded=0;orthogonalLoop=1;jettySize=auto;html=1;" parent="1" source="qz86LCAzFGxaia78Myq2-73" target="qz86LCAzFGxaia78Myq2-75" edge="1">
          <mxGeometry relative="1" as="geometry" />
        </mxCell>
        <mxCell id="qz86LCAzFGxaia78Myq2-78" value="" style="edgeStyle=orthogonalEdgeStyle;rounded=0;orthogonalLoop=1;jettySize=auto;html=1;" parent="1" source="qz86LCAzFGxaia78Myq2-73" target="qz86LCAzFGxaia78Myq2-77" edge="1">
          <mxGeometry relative="1" as="geometry" />
        </mxCell>
        <mxCell id="qz86LCAzFGxaia78Myq2-73" value="sumWeights &amp;gt; 0" style="rhombus;whiteSpace=wrap;html=1;" parent="1" vertex="1">
          <mxGeometry x="-266.51" y="647" width="120.76" height="70" as="geometry" />
        </mxCell>
        <mxCell id="NidRG3bAUvhYzI4qwdSQ-38" style="edgeStyle=orthogonalEdgeStyle;rounded=0;orthogonalLoop=1;jettySize=auto;html=1;exitX=1;exitY=0.5;exitDx=0;exitDy=0;" edge="1" parent="1" source="qz86LCAzFGxaia78Myq2-75">
          <mxGeometry relative="1" as="geometry">
            <mxPoint x="73.5" y="697" as="targetPoint" />
          </mxGeometry>
        </mxCell>
        <mxCell id="qz86LCAzFGxaia78Myq2-75" value="error = previous_error" style="whiteSpace=wrap;html=1;" parent="1" vertex="1">
          <mxGeometry x="-86.5" y="652" width="150.37" height="60" as="geometry" />
        </mxCell>
        <mxCell id="NidRG3bAUvhYzI4qwdSQ-33" style="edgeStyle=orthogonalEdgeStyle;rounded=0;orthogonalLoop=1;jettySize=auto;html=1;exitX=0.5;exitY=1;exitDx=0;exitDy=0;entryX=0.5;entryY=0;entryDx=0;entryDy=0;" edge="1" parent="1" source="qz86LCAzFGxaia78Myq2-77" target="NidRG3bAUvhYzI4qwdSQ-32">
          <mxGeometry relative="1" as="geometry" />
        </mxCell>
        <mxCell id="qz86LCAzFGxaia78Myq2-77" value="error = sum / sumWeights" style="whiteSpace=wrap;html=1;" parent="1" vertex="1">
          <mxGeometry x="-276.89" y="747" width="141.51" height="60" as="geometry" />
        </mxCell>
        <mxCell id="qz86LCAzFGxaia78Myq2-79" value="Đ" style="text;html=1;align=center;verticalAlign=middle;whiteSpace=wrap;rounded=0;" parent="1" vertex="1">
          <mxGeometry x="-225" y="717" width="20" height="30" as="geometry" />
        </mxCell>
        <mxCell id="qz86LCAzFGxaia78Myq2-80" value="S" style="text;html=1;align=center;verticalAlign=middle;whiteSpace=wrap;rounded=0;" parent="1" vertex="1">
          <mxGeometry x="-136.5" y="652" width="31.5" height="30" as="geometry" />
        </mxCell>
        <mxCell id="qz86LCAzFGxaia78Myq2-83" value="" style="edgeStyle=orthogonalEdgeStyle;rounded=0;orthogonalLoop=1;jettySize=auto;html=1;" parent="1" source="qz86LCAzFGxaia78Myq2-81" target="qz86LCAzFGxaia78Myq2-82" edge="1">
          <mxGeometry relative="1" as="geometry" />
        </mxCell>
        <mxCell id="qz86LCAzFGxaia78Myq2-81" value="Tính toán PID" style="ellipse;whiteSpace=wrap;html=1;" parent="1" vertex="1">
          <mxGeometry x="215" y="285" width="190" height="60" as="geometry" />
        </mxCell>
        <mxCell id="qz86LCAzFGxaia78Myq2-85" value="" style="edgeStyle=orthogonalEdgeStyle;rounded=0;orthogonalLoop=1;jettySize=auto;html=1;" parent="1" source="qz86LCAzFGxaia78Myq2-82" target="qz86LCAzFGxaia78Myq2-84" edge="1">
          <mxGeometry relative="1" as="geometry" />
        </mxCell>
        <mxCell id="qz86LCAzFGxaia78Myq2-82" value="integral += error;" style="whiteSpace=wrap;html=1;" parent="1" vertex="1">
          <mxGeometry x="250" y="385" width="120" height="40" as="geometry" />
        </mxCell>
        <mxCell id="qz86LCAzFGxaia78Myq2-87" value="" style="edgeStyle=orthogonalEdgeStyle;rounded=0;orthogonalLoop=1;jettySize=auto;html=1;" parent="1" source="qz86LCAzFGxaia78Myq2-84" target="qz86LCAzFGxaia78Myq2-86" edge="1">
          <mxGeometry relative="1" as="geometry" />
        </mxCell>
        <mxCell id="qz86LCAzFGxaia78Myq2-84" value="pid = (Kp * error) + (Kd * (error - previous_error)) + (Ki * integral);" style="whiteSpace=wrap;html=1;" parent="1" vertex="1">
          <mxGeometry x="127.5" y="455" width="365" height="60" as="geometry" />
        </mxCell>
        <mxCell id="NidRG3bAUvhYzI4qwdSQ-40" style="edgeStyle=orthogonalEdgeStyle;rounded=0;orthogonalLoop=1;jettySize=auto;html=1;exitX=0.5;exitY=1;exitDx=0;exitDy=0;entryX=0.5;entryY=0;entryDx=0;entryDy=0;" edge="1" parent="1" source="qz86LCAzFGxaia78Myq2-86" target="NidRG3bAUvhYzI4qwdSQ-39">
          <mxGeometry relative="1" as="geometry" />
        </mxCell>
        <mxCell id="qz86LCAzFGxaia78Myq2-86" value="previous_error = error;" style="whiteSpace=wrap;html=1;" parent="1" vertex="1">
          <mxGeometry x="237.5" y="555" width="145" height="60" as="geometry" />
        </mxCell>
        <mxCell id="qz86LCAzFGxaia78Myq2-90" value="" style="edgeStyle=orthogonalEdgeStyle;rounded=0;orthogonalLoop=1;jettySize=auto;html=1;" parent="1" source="qz86LCAzFGxaia78Myq2-88" target="qz86LCAzFGxaia78Myq2-89" edge="1">
          <mxGeometry relative="1" as="geometry" />
        </mxCell>
        <mxCell id="qz86LCAzFGxaia78Myq2-88" value="Điều khiển động cơ" style="ellipse;whiteSpace=wrap;html=1;" parent="1" vertex="1">
          <mxGeometry x="-676.75" y="610" width="178.5" height="50" as="geometry" />
        </mxCell>
        <mxCell id="NidRG3bAUvhYzI4qwdSQ-43" style="edgeStyle=orthogonalEdgeStyle;rounded=0;orthogonalLoop=1;jettySize=auto;html=1;exitX=0.5;exitY=1;exitDx=0;exitDy=0;entryX=0.5;entryY=0;entryDx=0;entryDy=0;" edge="1" parent="1" source="qz86LCAzFGxaia78Myq2-89" target="qz86LCAzFGxaia78Myq2-91">
          <mxGeometry relative="1" as="geometry" />
        </mxCell>
        <mxCell id="qz86LCAzFGxaia78Myq2-89" value="Điều khiển động cơ bên trái" style="whiteSpace=wrap;html=1;" parent="1" vertex="1">
          <mxGeometry x="-646.75" y="685" width="120" height="60" as="geometry" />
        </mxCell>
        <mxCell id="NidRG3bAUvhYzI4qwdSQ-42" style="edgeStyle=orthogonalEdgeStyle;rounded=0;orthogonalLoop=1;jettySize=auto;html=1;exitX=0.5;exitY=1;exitDx=0;exitDy=0;entryX=0.5;entryY=0;entryDx=0;entryDy=0;" edge="1" parent="1" source="qz86LCAzFGxaia78Myq2-91" target="NidRG3bAUvhYzI4qwdSQ-41">
          <mxGeometry relative="1" as="geometry" />
        </mxCell>
        <mxCell id="qz86LCAzFGxaia78Myq2-91" value="Điều khiển động cơ bên phải" style="whiteSpace=wrap;html=1;" parent="1" vertex="1">
          <mxGeometry x="-647.5" y="765" width="120" height="55" as="geometry" />
        </mxCell>
        <mxCell id="NidRG3bAUvhYzI4qwdSQ-18" style="edgeStyle=orthogonalEdgeStyle;rounded=0;orthogonalLoop=1;jettySize=auto;html=1;exitX=0.5;exitY=1;exitDx=0;exitDy=0;entryX=0.5;entryY=0;entryDx=0;entryDy=0;" edge="1" parent="1" source="NidRG3bAUvhYzI4qwdSQ-3" target="NidRG3bAUvhYzI4qwdSQ-10">
          <mxGeometry relative="1" as="geometry" />
        </mxCell>
        <mxCell id="NidRG3bAUvhYzI4qwdSQ-3" value="Cấu hình các chân điều khiển động cơ và cảm biến.Thiết lập thông số&amp;nbsp;&lt;strong data-end=&quot;216&quot; data-start=&quot;209&quot;&gt;PID&lt;/strong&gt;&amp;nbsp;và tốc độ cơ bản." style="rounded=0;whiteSpace=wrap;html=1;" vertex="1" parent="1">
          <mxGeometry x="-800" y="-425" width="160" height="85" as="geometry" />
        </mxCell>
        <mxCell id="NidRG3bAUvhYzI4qwdSQ-6" value="" style="edgeStyle=orthogonalEdgeStyle;rounded=0;orthogonalLoop=1;jettySize=auto;html=1;" edge="1" parent="1" source="NidRG3bAUvhYzI4qwdSQ-4" target="NidRG3bAUvhYzI4qwdSQ-3">
          <mxGeometry relative="1" as="geometry" />
        </mxCell>
        <mxCell id="NidRG3bAUvhYzI4qwdSQ-4" value="START" style="ellipse;whiteSpace=wrap;html=1;" vertex="1" parent="1">
          <mxGeometry x="-779" y="-520" width="120" height="50" as="geometry" />
        </mxCell>
        <mxCell id="NidRG3bAUvhYzI4qwdSQ-10" value="Hàm setup" style="shape=process;whiteSpace=wrap;html=1;backgroundOutline=1;" vertex="1" parent="1">
          <mxGeometry x="-800" y="-320" width="160" height="60" as="geometry" />
        </mxCell>
        <mxCell id="NidRG3bAUvhYzI4qwdSQ-22" style="edgeStyle=orthogonalEdgeStyle;rounded=0;orthogonalLoop=1;jettySize=auto;html=1;exitX=0.5;exitY=1;exitDx=0;exitDy=0;entryX=0.5;entryY=0;entryDx=0;entryDy=0;" edge="1" parent="1" target="NidRG3bAUvhYzI4qwdSQ-14">
          <mxGeometry relative="1" as="geometry">
            <mxPoint x="-720" y="-260" as="sourcePoint" />
          </mxGeometry>
        </mxCell>
        <mxCell id="NidRG3bAUvhYzI4qwdSQ-14" value="Hàm loop" style="shape=process;whiteSpace=wrap;html=1;backgroundOutline=1;" vertex="1" parent="1">
          <mxGeometry x="-800" y="-230" width="160" height="60" as="geometry" />
        </mxCell>
        <mxCell id="NidRG3bAUvhYzI4qwdSQ-27" value="" style="endArrow=classic;html=1;rounded=0;" edge="1" parent="1">
          <mxGeometry width="50" height="50" relative="1" as="geometry">
            <mxPoint x="-720" y="-169" as="sourcePoint" />
            <mxPoint x="-720" y="-249" as="targetPoint" />
            <Array as="points">
              <mxPoint x="-720" y="-139" />
              <mxPoint x="-580" y="-139" />
              <mxPoint x="-580" y="-249" />
            </Array>
          </mxGeometry>
        </mxCell>
        <mxCell id="NidRG3bAUvhYzI4qwdSQ-28" value="Kết thúc" style="ellipse;whiteSpace=wrap;html=1;" vertex="1" parent="1">
          <mxGeometry x="-647.5" y="455" width="120" height="55" as="geometry" />
        </mxCell>
        <mxCell id="NidRG3bAUvhYzI4qwdSQ-32" value="Return error;" style="rounded=0;whiteSpace=wrap;html=1;" vertex="1" parent="1">
          <mxGeometry x="-280.38" y="837" width="150" height="50" as="geometry" />
        </mxCell>
        <mxCell id="NidRG3bAUvhYzI4qwdSQ-34" value="Kết thúc" style="ellipse;whiteSpace=wrap;html=1;" vertex="1" parent="1">
          <mxGeometry x="-263.99" y="907" width="129" height="60" as="geometry" />
        </mxCell>
        <mxCell id="NidRG3bAUvhYzI4qwdSQ-35" style="edgeStyle=orthogonalEdgeStyle;rounded=0;orthogonalLoop=1;jettySize=auto;html=1;exitX=0.5;exitY=1;exitDx=0;exitDy=0;entryX=0.456;entryY=0.04;entryDx=0;entryDy=0;entryPerimeter=0;" edge="1" parent="1" source="NidRG3bAUvhYzI4qwdSQ-32" target="NidRG3bAUvhYzI4qwdSQ-34">
          <mxGeometry relative="1" as="geometry" />
        </mxCell>
        <mxCell id="NidRG3bAUvhYzI4qwdSQ-37" value="" style="endArrow=classic;html=1;rounded=0;" edge="1" parent="1">
          <mxGeometry width="50" height="50" relative="1" as="geometry">
            <mxPoint x="75" y="682" as="sourcePoint" />
            <mxPoint x="-205" y="822" as="targetPoint" />
            <Array as="points">
              <mxPoint x="75" y="822" />
            </Array>
          </mxGeometry>
        </mxCell>
        <mxCell id="NidRG3bAUvhYzI4qwdSQ-39" value="Kết thúc" style="ellipse;whiteSpace=wrap;html=1;" vertex="1" parent="1">
          <mxGeometry x="250.5" y="635" width="120" height="50" as="geometry" />
        </mxCell>
        <mxCell id="NidRG3bAUvhYzI4qwdSQ-41" value="Kết thúc" style="ellipse;whiteSpace=wrap;html=1;" vertex="1" parent="1">
          <mxGeometry x="-647.5" y="840" width="120.75" height="40" as="geometry" />
        </mxCell>
        <mxCell id="NidRG3bAUvhYzI4qwdSQ-46" value="" style="endArrow=none;html=1;rounded=0;strokeColor=#FF0000;labelBorderColor=none;strokeWidth=4;" edge="1" parent="1">
          <mxGeometry width="50" height="50" relative="1" as="geometry">
            <mxPoint x="-760" y="960" as="sourcePoint" />
            <mxPoint x="-760" y="240" as="targetPoint" />
          </mxGeometry>
        </mxCell>
        <mxCell id="NidRG3bAUvhYzI4qwdSQ-48" value="" style="endArrow=none;html=1;rounded=0;strokeColor=#FF0000;labelBorderColor=none;strokeWidth=4;" edge="1" parent="1">
          <mxGeometry width="50" height="50" relative="1" as="geometry">
            <mxPoint x="-360" y="960" as="sourcePoint" />
            <mxPoint x="-360" y="240" as="targetPoint" />
          </mxGeometry>
        </mxCell>
        <mxCell id="NidRG3bAUvhYzI4qwdSQ-49" value="" style="endArrow=none;html=1;rounded=0;strokeColor=#FF0000;labelBorderColor=none;strokeWidth=4;" edge="1" parent="1">
          <mxGeometry width="50" height="50" relative="1" as="geometry">
            <mxPoint x="100" y="950" as="sourcePoint" />
            <mxPoint x="100" y="240" as="targetPoint" />
          </mxGeometry>
        </mxCell>
        <mxCell id="NidRG3bAUvhYzI4qwdSQ-50" value="" style="endArrow=none;html=1;rounded=0;strokeColor=#FF0000;labelBorderColor=none;strokeWidth=4;" edge="1" parent="1">
          <mxGeometry width="50" height="50" relative="1" as="geometry">
            <mxPoint x="-760" y="570" as="sourcePoint" />
            <mxPoint x="-360" y="570" as="targetPoint" />
          </mxGeometry>
        </mxCell>
        <mxCell id="NidRG3bAUvhYzI4qwdSQ-98" style="edgeStyle=orthogonalEdgeStyle;rounded=0;orthogonalLoop=1;jettySize=auto;html=1;exitX=0.5;exitY=1;exitDx=0;exitDy=0;entryX=0.5;entryY=0;entryDx=0;entryDy=0;" edge="1" parent="1" source="NidRG3bAUvhYzI4qwdSQ-99" target="NidRG3bAUvhYzI4qwdSQ-113">
          <mxGeometry relative="1" as="geometry" />
        </mxCell>
        <mxCell id="NidRG3bAUvhYzI4qwdSQ-99" value="Hàm loop" style="ellipse;whiteSpace=wrap;html=1;" vertex="1" parent="1">
          <mxGeometry x="-341.5" y="-534" width="140" height="50" as="geometry" />
        </mxCell>
        <mxCell id="NidRG3bAUvhYzI4qwdSQ-100" value="" style="edgeStyle=orthogonalEdgeStyle;rounded=0;orthogonalLoop=1;jettySize=auto;html=1;" edge="1" parent="1">
          <mxGeometry relative="1" as="geometry">
            <mxPoint x="-262.7391304347825" y="-254.0048309178742" as="sourcePoint" />
            <mxPoint x="-266.47826086956525" y="-229" as="targetPoint" />
          </mxGeometry>
        </mxCell>
        <mxCell id="NidRG3bAUvhYzI4qwdSQ-101" value="" style="edgeStyle=orthogonalEdgeStyle;rounded=0;orthogonalLoop=1;jettySize=auto;html=1;" edge="1" parent="1" source="NidRG3bAUvhYzI4qwdSQ-102" target="NidRG3bAUvhYzI4qwdSQ-107">
          <mxGeometry relative="1" as="geometry" />
        </mxCell>
        <mxCell id="NidRG3bAUvhYzI4qwdSQ-102" value="error &amp;gt;= 3;&lt;div&gt;(Kiểm tra có cua hay không)&lt;/div&gt;" style="rhombus;whiteSpace=wrap;html=1;" vertex="1" parent="1">
          <mxGeometry x="-342" y="-318" width="140" height="70" as="geometry" />
        </mxCell>
        <mxCell id="NidRG3bAUvhYzI4qwdSQ-103" style="edgeStyle=orthogonalEdgeStyle;rounded=0;orthogonalLoop=1;jettySize=auto;html=1;exitX=0.5;exitY=1;exitDx=0;exitDy=0;entryX=0.5;entryY=0;entryDx=0;entryDy=0;" edge="1" parent="1" source="NidRG3bAUvhYzI4qwdSQ-104" target="NidRG3bAUvhYzI4qwdSQ-109">
          <mxGeometry relative="1" as="geometry" />
        </mxCell>
        <mxCell id="NidRG3bAUvhYzI4qwdSQ-104" value="Flag_Turning = True&lt;div&gt;&amp;nbsp;BASE_SPEED = TURN_SPEED&lt;div&gt;&lt;div&gt;straightStartTime = 0&lt;/div&gt;&lt;/div&gt;&lt;/div&gt;" style="whiteSpace=wrap;html=1;" vertex="1" parent="1">
          <mxGeometry x="-382" y="-229" width="220" height="60" as="geometry" />
        </mxCell>
        <mxCell id="NidRG3bAUvhYzI4qwdSQ-105" value="" style="edgeStyle=orthogonalEdgeStyle;rounded=0;orthogonalLoop=1;jettySize=auto;html=1;" edge="1" parent="1" source="NidRG3bAUvhYzI4qwdSQ-107">
          <mxGeometry relative="1" as="geometry">
            <mxPoint x="59.11999999999966" y="-284" as="targetPoint" />
          </mxGeometry>
        </mxCell>
        <mxCell id="NidRG3bAUvhYzI4qwdSQ-106" style="edgeStyle=orthogonalEdgeStyle;rounded=0;orthogonalLoop=1;jettySize=auto;html=1;exitX=0.5;exitY=1;exitDx=0;exitDy=0;" edge="1" parent="1" source="NidRG3bAUvhYzI4qwdSQ-107">
          <mxGeometry relative="1" as="geometry">
            <mxPoint x="-60.68421052631584" y="-144" as="targetPoint" />
          </mxGeometry>
        </mxCell>
        <mxCell id="NidRG3bAUvhYzI4qwdSQ-107" value="Flag_Turning = True&lt;div&gt;(Nếu đang cua trước đó)&lt;/div&gt;" style="rhombus;whiteSpace=wrap;html=1;" vertex="1" parent="1">
          <mxGeometry x="-142" y="-333.37" width="163.11" height="100" as="geometry" />
        </mxCell>
        <mxCell id="NidRG3bAUvhYzI4qwdSQ-108" value="" style="edgeStyle=orthogonalEdgeStyle;rounded=0;orthogonalLoop=1;jettySize=auto;html=1;" edge="1" parent="1" source="NidRG3bAUvhYzI4qwdSQ-109" target="NidRG3bAUvhYzI4qwdSQ-111">
          <mxGeometry relative="1" as="geometry" />
        </mxCell>
        <mxCell id="NidRG3bAUvhYzI4qwdSQ-109" value="leftSpeedPwm = BASE_SPEED + pid&lt;div&gt;rightSpeedPwm = BASE_SPEED - pid&lt;/div&gt;" style="whiteSpace=wrap;html=1;" vertex="1" parent="1">
          <mxGeometry x="-419.5" y="-114" width="295" height="70" as="geometry" />
        </mxCell>
        <mxCell id="NidRG3bAUvhYzI4qwdSQ-110" value="" style="edgeStyle=orthogonalEdgeStyle;rounded=0;orthogonalLoop=1;jettySize=auto;html=1;" edge="1" parent="1" source="NidRG3bAUvhYzI4qwdSQ-111">
          <mxGeometry relative="1" as="geometry">
            <mxPoint x="-271.9473684210525" y="86" as="targetPoint" />
          </mxGeometry>
        </mxCell>
        <mxCell id="NidRG3bAUvhYzI4qwdSQ-111" value="leftSpeedPwm = constrain(leftSpeedPwm, MIN_SPEED, MAX_SPEED);&#xa;rightSpeedPwm = constrain(rightSpeedPwm, MIN_SPEED, MAX_SPEED);" style="whiteSpace=wrap;html=1;" vertex="1" parent="1">
          <mxGeometry x="-414" y="-14" width="285" height="60" as="geometry" />
        </mxCell>
        <mxCell id="NidRG3bAUvhYzI4qwdSQ-112" style="edgeStyle=orthogonalEdgeStyle;rounded=0;orthogonalLoop=1;jettySize=auto;html=1;exitX=0.5;exitY=1;exitDx=0;exitDy=0;entryX=0.5;entryY=0;entryDx=0;entryDy=0;" edge="1" parent="1" source="NidRG3bAUvhYzI4qwdSQ-113" target="NidRG3bAUvhYzI4qwdSQ-115">
          <mxGeometry relative="1" as="geometry" />
        </mxCell>
        <mxCell id="NidRG3bAUvhYzI4qwdSQ-113" value="Đọc và tính toán dữ liệu từ cảm biến" style="shape=process;whiteSpace=wrap;html=1;backgroundOutline=1;" vertex="1" parent="1">
          <mxGeometry x="-342" y="-449" width="150" height="55" as="geometry" />
        </mxCell>
        <mxCell id="NidRG3bAUvhYzI4qwdSQ-114" style="edgeStyle=orthogonalEdgeStyle;rounded=0;orthogonalLoop=1;jettySize=auto;html=1;exitX=0.5;exitY=1;exitDx=0;exitDy=0;entryX=0.5;entryY=0;entryDx=0;entryDy=0;" edge="1" parent="1" source="NidRG3bAUvhYzI4qwdSQ-115" target="NidRG3bAUvhYzI4qwdSQ-102">
          <mxGeometry relative="1" as="geometry" />
        </mxCell>
        <mxCell id="NidRG3bAUvhYzI4qwdSQ-115" value="Tính toán PID" style="shape=process;whiteSpace=wrap;html=1;backgroundOutline=1;" vertex="1" parent="1">
          <mxGeometry x="-342" y="-374" width="150" height="40" as="geometry" />
        </mxCell>
        <mxCell id="NidRG3bAUvhYzI4qwdSQ-116" value="Đ" style="text;html=1;align=center;verticalAlign=middle;resizable=0;points=[];autosize=1;strokeColor=none;fillColor=none;" vertex="1" parent="1">
          <mxGeometry x="-302.5" y="-259" width="30" height="30" as="geometry" />
        </mxCell>
        <mxCell id="NidRG3bAUvhYzI4qwdSQ-117" value="S" style="text;html=1;align=center;verticalAlign=middle;resizable=0;points=[];autosize=1;strokeColor=none;fillColor=none;" vertex="1" parent="1">
          <mxGeometry x="-182.5" y="-314" width="30" height="30" as="geometry" />
        </mxCell>
        <mxCell id="NidRG3bAUvhYzI4qwdSQ-118" value="Đ" style="text;html=1;align=center;verticalAlign=middle;resizable=0;points=[];autosize=1;strokeColor=none;fillColor=none;" vertex="1" parent="1">
          <mxGeometry x="21.11" y="-314" width="30" height="30" as="geometry" />
        </mxCell>
        <mxCell id="NidRG3bAUvhYzI4qwdSQ-119" style="edgeStyle=orthogonalEdgeStyle;rounded=0;orthogonalLoop=1;jettySize=auto;html=1;exitX=1;exitY=0.5;exitDx=0;exitDy=0;" edge="1" parent="1" source="NidRG3bAUvhYzI4qwdSQ-120">
          <mxGeometry relative="1" as="geometry">
            <mxPoint x="208.00000000000023" y="-284.391304347826" as="targetPoint" />
          </mxGeometry>
        </mxCell>
        <mxCell id="NidRG3bAUvhYzI4qwdSQ-120" value="straightStartTime=0" style="rhombus;whiteSpace=wrap;html=1;" vertex="1" parent="1">
          <mxGeometry x="56" y="-324" width="120" height="80" as="geometry" />
        </mxCell>
        <mxCell id="NidRG3bAUvhYzI4qwdSQ-121" value="Đ" style="text;html=1;align=center;verticalAlign=middle;resizable=0;points=[];autosize=1;strokeColor=none;fillColor=none;" vertex="1" parent="1">
          <mxGeometry x="176" y="-316" width="30" height="30" as="geometry" />
        </mxCell>
        <mxCell id="NidRG3bAUvhYzI4qwdSQ-122" style="edgeStyle=orthogonalEdgeStyle;rounded=0;orthogonalLoop=1;jettySize=auto;html=1;exitX=1;exitY=0.5;exitDx=0;exitDy=0;entryX=0;entryY=0.5;entryDx=0;entryDy=0;" edge="1" parent="1" source="NidRG3bAUvhYzI4qwdSQ-123" target="NidRG3bAUvhYzI4qwdSQ-125">
          <mxGeometry relative="1" as="geometry" />
        </mxCell>
        <mxCell id="NidRG3bAUvhYzI4qwdSQ-123" value="&lt;br&gt;&lt;span style=&quot;color: rgb(0, 0, 0); font-family: Helvetica; font-size: 12px; font-style: normal; font-variant-ligatures: normal; font-variant-caps: normal; font-weight: 400; letter-spacing: normal; orphans: 2; text-align: center; text-indent: 0px; text-transform: none; widows: 2; word-spacing: 0px; -webkit-text-stroke-width: 0px; white-space: normal; background-color: rgb(251, 251, 251); text-decoration-thickness: initial; text-decoration-style: initial; text-decoration-color: initial; float: none; display: inline !important;&quot;&gt;straightStartTime = currentTime&lt;/span&gt;&lt;div&gt;&lt;br/&gt;&lt;/div&gt;" style="rounded=0;whiteSpace=wrap;html=1;" vertex="1" parent="1">
          <mxGeometry x="206" y="-313" width="96.5" height="60" as="geometry" />
        </mxCell>
        <mxCell id="NidRG3bAUvhYzI4qwdSQ-124" style="edgeStyle=orthogonalEdgeStyle;rounded=0;orthogonalLoop=1;jettySize=auto;html=1;exitX=1;exitY=0.5;exitDx=0;exitDy=0;entryX=0;entryY=0.5;entryDx=0;entryDy=0;" edge="1" parent="1" source="NidRG3bAUvhYzI4qwdSQ-125" target="NidRG3bAUvhYzI4qwdSQ-126">
          <mxGeometry relative="1" as="geometry" />
        </mxCell>
        <mxCell id="NidRG3bAUvhYzI4qwdSQ-125" value="currentTime - straightStartTime&lt;div&gt;&amp;nbsp; &amp;nbsp; &amp;nbsp;&amp;gt;= STRAIGHT_THRESHOLD&lt;/div&gt;" style="rhombus;whiteSpace=wrap;html=1;" vertex="1" parent="1">
          <mxGeometry x="337" y="-331.62" width="211" height="97.25" as="geometry" />
        </mxCell>
        <mxCell id="NidRG3bAUvhYzI4qwdSQ-126" value="&amp;nbsp;&lt;div&gt;BASE_SPEED = STRAIGHT_SPEED&lt;div&gt;Flag_Turning = False&lt;/div&gt;&lt;div&gt;&lt;br&gt;&lt;/div&gt;&lt;/div&gt;" style="rounded=0;whiteSpace=wrap;html=1;" vertex="1" parent="1">
          <mxGeometry x="573" y="-313" width="165" height="60" as="geometry" />
        </mxCell>
        <mxCell id="NidRG3bAUvhYzI4qwdSQ-127" value="Đ" style="text;html=1;align=center;verticalAlign=middle;resizable=0;points=[];autosize=1;strokeColor=none;fillColor=none;" vertex="1" parent="1">
          <mxGeometry x="543" y="-316" width="30" height="30" as="geometry" />
        </mxCell>
        <mxCell id="NidRG3bAUvhYzI4qwdSQ-128" value="" style="endArrow=classic;html=1;rounded=0;" edge="1" parent="1">
          <mxGeometry width="50" height="50" relative="1" as="geometry">
            <mxPoint x="73" y="-144" as="sourcePoint" />
            <mxPoint x="-272" y="-144" as="targetPoint" />
          </mxGeometry>
        </mxCell>
        <mxCell id="NidRG3bAUvhYzI4qwdSQ-129" value="" style="endArrow=classic;html=1;rounded=0;exitX=0.5;exitY=1;exitDx=0;exitDy=0;" edge="1" parent="1" source="NidRG3bAUvhYzI4qwdSQ-120">
          <mxGeometry width="50" height="50" relative="1" as="geometry">
            <mxPoint x="118" y="-224" as="sourcePoint" />
            <mxPoint x="318" y="-284" as="targetPoint" />
            <Array as="points">
              <mxPoint x="116" y="-224" />
              <mxPoint x="208" y="-224" />
              <mxPoint x="318" y="-224" />
            </Array>
          </mxGeometry>
        </mxCell>
        <mxCell id="NidRG3bAUvhYzI4qwdSQ-130" value="S" style="text;html=1;align=center;verticalAlign=middle;resizable=0;points=[];autosize=1;strokeColor=none;fillColor=none;" vertex="1" parent="1">
          <mxGeometry x="133.01" y="-253" width="30" height="30" as="geometry" />
        </mxCell>
        <mxCell id="NidRG3bAUvhYzI4qwdSQ-131" value="" style="endArrow=none;html=1;rounded=0;" edge="1" parent="1">
          <mxGeometry width="50" height="50" relative="1" as="geometry">
            <mxPoint x="68" y="-144" as="sourcePoint" />
            <mxPoint x="648" y="-253" as="targetPoint" />
            <Array as="points">
              <mxPoint x="648" y="-144" />
            </Array>
          </mxGeometry>
        </mxCell>
        <mxCell id="NidRG3bAUvhYzI4qwdSQ-132" value="" style="endArrow=classic;html=1;rounded=0;" edge="1" parent="1">
          <mxGeometry width="50" height="50" relative="1" as="geometry">
            <mxPoint x="-270" y="146" as="sourcePoint" />
            <mxPoint x="-269" y="-464" as="targetPoint" />
            <Array as="points">
              <mxPoint x="-269.5" y="166" />
              <mxPoint x="-459.5" y="166" />
              <mxPoint x="-459.5" y="-154" />
              <mxPoint x="-459.5" y="-314" />
              <mxPoint x="-459.5" y="-464" />
            </Array>
          </mxGeometry>
        </mxCell>
        <mxCell id="NidRG3bAUvhYzI4qwdSQ-133" value="S" style="text;html=1;align=center;verticalAlign=middle;resizable=0;points=[];autosize=1;strokeColor=none;fillColor=none;" vertex="1" parent="1">
          <mxGeometry x="-57" y="-214" width="30" height="30" as="geometry" />
        </mxCell>
        <mxCell id="NidRG3bAUvhYzI4qwdSQ-134" value="control_motor(leftSpeedPwm, rightSpeedPwm)" style="shape=process;whiteSpace=wrap;html=1;backgroundOutline=1;" vertex="1" parent="1">
          <mxGeometry x="-402" y="86" width="270" height="60" as="geometry" />
        </mxCell>
        <mxCell id="NidRG3bAUvhYzI4qwdSQ-135" value="" style="endArrow=none;html=1;rounded=0;strokeColor=#FF0000;labelBorderColor=none;strokeWidth=4;" edge="1" parent="1">
          <mxGeometry width="50" height="50" relative="1" as="geometry">
            <mxPoint x="-500" y="200" as="sourcePoint" />
            <mxPoint x="-500" y="-520" as="targetPoint" />
          </mxGeometry>
        </mxCell>
      </root>
    </mxGraphModel>
  </diagram>
</mxfile>
